<?xml version="1.0" encoding="utf-8"?>
<!-- Generator: Adobe Illustrator 24.0.1, SVG Export Plug-In . SVG Version: 6.00 Build 0)  -->
<svg version="1.1" id="Layer_1" xmlns="http://www.w3.org/2000/svg" xmlns:xlink="http://www.w3.org/1999/xlink" x="0px" y="0px"
	 viewBox="0 0 135 30" style="enable-background:new 0 0 135 30;" xml:space="preserve">
<style type="text/css">
	.st0{fill:#FFFFFF;}
</style>
<path class="st0" d="M23.3,7.3v17.8c0,0.2-0.1,0.3-0.2,0.4c-0.1,0.1-0.3,0.2-0.4,0.2h-3.9c-0.2,0-0.3-0.1-0.4-0.2
	c-0.1-0.1-0.2-0.3-0.2-0.4v-8.4c0-0.2-0.1-0.3-0.2-0.3s-0.3,0-0.4,0.2l-4.4,7.1c-0.1,0.1-0.2,0.2-0.4,0.2c-0.2,0-0.3-0.1-0.4-0.2
	l-4.4-7.1c-0.1-0.1-0.2-0.2-0.4-0.2s-0.2,0.1-0.2,0.3v8.4c0,0.2-0.1,0.3-0.2,0.4c-0.1,0.1-0.3,0.2-0.4,0.2H2.7
	c-0.2,0-0.3-0.1-0.4-0.2c-0.1-0.1-0.2-0.3-0.2-0.4V7.3c0-0.2,0.1-0.3,0.2-0.4c0.1-0.1,0.3-0.2,0.4-0.2h3.6c0.2,0,0.4,0.1,0.5,0.2
	C7.1,7,7.2,7.1,7.3,7.2l5,7.4c0.1,0.1,0.2,0.2,0.4,0.2s0.3-0.1,0.3-0.2l5-7.4c0.1-0.1,0.3-0.3,0.4-0.4c0.2-0.1,0.4-0.2,0.5-0.2h3.6
	c0.2,0,0.3,0.1,0.4,0.2C23.2,7,23.3,7.2,23.3,7.3z"/>
<path class="st0" d="M27.4,7.3c0-0.2,0.1-0.3,0.2-0.4c0.1-0.1,0.3-0.2,0.4-0.2H32c0.2,0,0.3,0.1,0.4,0.2c0.1,0.1,0.2,0.3,0.2,0.4
	v10.6c0,0.7,0.1,1.2,0.3,1.7c0.2,0.4,0.5,0.8,0.8,1c0.3,0.3,0.7,0.4,1,0.5c0.4,0.1,0.7,0.2,1,0.2s0.6-0.1,1-0.2s0.7-0.3,1-0.5
	s0.6-0.6,0.8-1c0.2-0.4,0.3-1,0.3-1.7V7.3c0-0.2,0.1-0.3,0.2-0.4c0.1-0.1,0.3-0.2,0.4-0.2h3.9c0.2,0,0.3,0.1,0.4,0.2
	C44,7,44.1,7.2,44.1,7.3v10.6c0,1.2-0.2,2.4-0.6,3.4s-0.9,1.9-1.7,2.6c-0.7,0.7-1.6,1.3-2.6,1.7c-1,0.4-2.2,0.6-3.4,0.6
	c-1.2,0-2.4-0.2-3.4-0.6c-1-0.4-1.9-0.9-2.6-1.7c-0.7-0.7-1.3-1.6-1.7-2.6c-0.4-1-0.6-2.1-0.6-3.4V7.3z"/>
<path class="st0" d="M61.9,25.8H47.2c-0.2,0-0.3-0.1-0.4-0.2c-0.1-0.1-0.2-0.3-0.2-0.4v-2.9c0-0.2,0-0.4,0.1-0.6
	c0.1-0.2,0.2-0.4,0.3-0.5l8-8.9c0.1-0.1,0.1-0.3,0.1-0.4c0-0.2-0.1-0.2-0.3-0.2h-7.5c-0.2,0-0.3-0.1-0.4-0.2
	c-0.1-0.1-0.2-0.3-0.2-0.4V7.3c0-0.2,0.1-0.3,0.2-0.4c0.1-0.1,0.3-0.2,0.4-0.2h14.8c0.2,0,0.3,0.1,0.5,0.2c0.1,0.1,0.2,0.3,0.2,0.4
	v2.9c0,0.2,0,0.4-0.1,0.6s-0.2,0.4-0.3,0.5l-8,9c-0.1,0.1-0.1,0.3-0.1,0.4c0,0.1,0.1,0.2,0.3,0.2h7.5c0.2,0,0.3,0.1,0.5,0.2
	c0.1,0.1,0.2,0.3,0.2,0.4v3.5c0,0.2-0.1,0.3-0.2,0.4C62.3,25.7,62.1,25.8,61.9,25.8z"/>
<path class="st0" d="M70.8,7.3C70.8,7.1,71,7,71.1,6.9c0.2-0.1,0.3-0.2,0.5-0.2h3.6c0.2,0,0.3,0.1,0.5,0.2C76,7,76.1,7.1,76.2,7.3
	L83.8,25c0.1,0.2,0.1,0.3,0,0.5s-0.3,0.3-0.6,0.3h-4.5c-0.2,0-0.4-0.1-0.5-0.2c-0.2-0.1-0.3-0.2-0.4-0.4l-0.7-1.6
	c-0.1-0.2-0.2-0.3-0.4-0.4c-0.2-0.1-0.3-0.2-0.5-0.2h-5.5c-0.2,0-0.4,0.1-0.5,0.2c-0.2,0.1-0.3,0.2-0.4,0.4l-0.7,1.6
	c-0.1,0.2-0.2,0.3-0.4,0.4c-0.2,0.1-0.3,0.2-0.5,0.2h-4.5c-0.1,0-0.2,0-0.3-0.1c-0.1,0-0.2-0.1-0.2-0.2c-0.1-0.1-0.1-0.2-0.1-0.3
	c0-0.1,0-0.2,0.1-0.4L70.8,7.3z M72.3,18.6h2.3c0.2,0,0.3-0.1,0.4-0.2s0.1-0.2,0-0.4c-0.2-0.4-0.4-0.9-0.6-1.5
	c-0.2-0.6-0.5-1.1-0.7-1.6c-0.1-0.2-0.1-0.2-0.2-0.2s-0.2,0.1-0.2,0.2l-1.3,3.2c-0.1,0.2-0.1,0.3,0,0.4C72,18.6,72.1,18.6,72.3,18.6
	z"/>
<path class="st0" d="M102.6,7.3v17.8c0,0.2-0.1,0.3-0.2,0.4c-0.1,0.1-0.3,0.2-0.4,0.2h-3.9c-0.2,0-0.3-0.1-0.5-0.2
	c-0.1-0.1-0.2-0.3-0.2-0.4v-5.6c0-0.2-0.1-0.3-0.2-0.4c-0.1-0.1-0.3-0.2-0.4-0.2h-5.3c-0.2,0-0.3,0.1-0.5,0.2
	c-0.1,0.1-0.2,0.3-0.2,0.4v5.6c0,0.2-0.1,0.3-0.2,0.4c-0.1,0.1-0.3,0.2-0.4,0.2h-3.9c-0.2,0-0.3-0.1-0.5-0.2
	c-0.1-0.1-0.2-0.3-0.2-0.4V7.3c0-0.2,0.1-0.3,0.2-0.4c0.1-0.1,0.3-0.2,0.5-0.2h3.9c0.2,0,0.3,0.1,0.4,0.2c0.1,0.1,0.2,0.3,0.2,0.4
	v6.2c0,0.2,0.1,0.3,0.2,0.4c0.1,0.1,0.3,0.2,0.5,0.2h5.3c0.2,0,0.3-0.1,0.4-0.2c0.1-0.1,0.2-0.3,0.2-0.4V7.3c0-0.2,0.1-0.3,0.2-0.4
	c0.1-0.1,0.3-0.2,0.5-0.2h3.9c0.2,0,0.3,0.1,0.4,0.2C102.5,7,102.6,7.1,102.6,7.3z"/>
<path class="st0" d="M111.2,25.8h-3.9c-0.2,0-0.3-0.1-0.5-0.2c-0.1-0.1-0.2-0.3-0.2-0.4V7.3c0-0.2,0.1-0.3,0.2-0.4
	c0.1-0.1,0.3-0.2,0.5-0.2h3.9c0.2,0,0.3,0.1,0.4,0.2c0.1,0.1,0.2,0.3,0.2,0.4v17.8c0,0.2-0.1,0.3-0.2,0.4
	C111.5,25.7,111.4,25.8,111.2,25.8z"/>
<path class="st0" d="M115.4,25.1V7.3c0-0.2,0.1-0.3,0.2-0.4c0.1-0.1,0.3-0.2,0.4-0.2h7.1c2.7,0,5,0.8,6.7,2.4
	c0.9,0.9,1.7,1.9,2.1,3.1c0.5,1.2,0.7,2.5,0.7,4s-0.2,2.8-0.7,4.1s-1.2,2.2-2.1,3.1c-0.9,0.8-1.9,1.4-3,1.8
	c-1.1,0.4-2.4,0.6-3.7,0.6H116c-0.2,0-0.3-0.1-0.4-0.2C115.4,25.5,115.4,25.3,115.4,25.1z M121.2,21h2c0.5,0,1-0.1,1.5-0.2
	c0.5-0.1,1-0.4,1.4-0.7s0.8-0.8,1-1.4c0.3-0.6,0.4-1.4,0.4-2.4c0-1-0.1-1.8-0.4-2.4c-0.3-0.6-0.6-1.1-1-1.4s-0.9-0.6-1.4-0.7
	s-1-0.2-1.5-0.2h-2c-0.2,0-0.3,0.1-0.4,0.2c-0.1,0.1-0.2,0.3-0.2,0.4v8.2c0,0.2,0.1,0.3,0.2,0.4C120.8,20.9,121,21,121.2,21z"/>
</svg>
